# xmcd
#
# Track frame offsets: 
#        150
#        11262
#        25016
#        36302
#        45827
#        63728
#        74126
#        88327
#        104980
#        118188
#        128879
#        138141
#        149682
#
# Disc length: 2151 seconds
#
# Revision: 0
# Processed by: cddbd v1.4PL0 Copyright (c) Steve Scherf et al.
# Submitted via: ExactAudioCopy v0.90b4
#
DISCID=c608650d
DTITLE=Dixie Dukes - Back At It Again
DYEAR=2003
DGENRE=Bluegrass
TTITLE0=Girl Of My Dreams
TTITLE1=Please Play The Juke Box
TTITLE2=Dixie Dukes Hoedown
TTITLE3=Aching Heart
TTITLE4=Pretending I Don't Care
TTITLE5=Little White Church
TTITLE6=Steal Away Somewhere And Die
TTITLE7=Froggy Went A Courtin'
TTITLE8=Steppin' Stones
TTITLE9=Farmer John
TTITLE10=Foggy Old London
TTITLE11=I'll Still Write Your Name In The Sand
TTITLE12=Prayer Bells Of Heaven
EXTD=
EXTT0=
EXTT1=
EXTT2=
EXTT3=
EXTT4=
EXTT5=
EXTT6=
EXTT7=
EXTT8=
EXTT9=
EXTT10=
EXTT11=
EXTT12=
PLAYORDER=
